#N canvas 838 461 450 536 10;
#X declare -lib xeq/xeq;
#X obj 59 388 xeq \$0-var;
#X obj 296 508 declare -lib xeq/xeq;
#X obj 59 469 print;
#X obj 92 447 print midi;
#X obj 126 427 bng 15 250 50 0 empty empty empty 17 7 0 10 -262144
-1 -1;
#N canvas 1 78 450 519 allMessages 0;
#X msg 23 27 next;
#X msg 33 50 loop;
#X msg 45 72 rewind;
#X msg 56 97 stop;
#X msg 64 119 flush;
#X msg 128 31 read qlistFile;
#X msg 136 56 write qlistFile;
#X msg 149 78 mfread midiFile;
#X msg 157 103 mfwrite midiFile;
#X msg 302 159 clear;
#X msg 282 29 locate gimme;
#X msg 293 53 locafter gimme;
#X msg 305 75 skipnotes gimme;
#X msg 311 97 find gimme;
#X msg 321 120 event gimme;
#X msg 311 182 clone sym;
#X msg 322 205 addclone sym;
#X msg 330 229 set gimme;
#X msg 341 252 add gimme;
#X msg 350 274 add2 gimme;
#X msg 364 299 addline gimme;
#X msg 373 322 append gimme;
#X obj 59 469 print;
#X obj 92 447 print midi;
#X obj 126 427 bng 15 250 50 0 empty empty empty 17 7 0 10 -262144
-1 -1;
#X obj 59 388 xeq \$0-all;
#X msg 354 359 edit;
#X msg 355 382 editok;
#X connect 0 0 25 0;
#X connect 1 0 25 0;
#X connect 2 0 25 0;
#X connect 3 0 25 0;
#X connect 4 0 25 0;
#X connect 5 0 25 0;
#X connect 6 0 25 0;
#X connect 7 0 25 0;
#X connect 8 0 25 0;
#X connect 9 0 25 0;
#X connect 10 0 25 0;
#X connect 11 0 25 0;
#X connect 12 0 25 0;
#X connect 13 0 25 0;
#X connect 14 0 25 0;
#X connect 15 0 25 0;
#X connect 16 0 25 0;
#X connect 17 0 25 0;
#X connect 18 0 25 0;
#X connect 19 0 25 0;
#X connect 20 0 25 0;
#X connect 21 0 25 0;
#X connect 25 0 22 0;
#X connect 25 1 23 0;
#X connect 25 2 24 0;
#X connect 26 0 25 0;
#X connect 27 0 25 0;
#X restore 148 498 pd allMessages;
#X msg 53 326 mfread mf/kanon.mid;
#X msg 79 353 edit;
#X msg 123 352 editok;
#X connect 0 0 2 0;
#X connect 0 1 3 0;
#X connect 0 2 4 0;
#X connect 6 0 0 0;
#X connect 7 0 0 0;
#X connect 8 0 0 0;
