#N canvas 270 484 450 300 10;
#X declare -lib xeq/xeq;
#X obj 300 278 declare -lib xeq/xeq;
#X obj 14 13 xeq aSeq;
#X obj 14 109 xeq_parse aSeq;
#X text 144 108 friend for midi data;
#X obj 14 187 xeq_query aName;
#X text 100 14 host for midi or qlist data;
#X text 140 186 get information from the host;
#X obj 14 62 xeq_follow aSeq aRef;
#X obj 15 85 xeq_host aDictVal;
#X obj 14 135 xeq_polyparse aSeq aRef 1;
#X obj 13 160 xeq_polytempo aName;
#X obj 15 212 xeq_record aName;
#X obj 16 240 xeq_time aName;
#X text 143 212 sequence recorder (a host);
#X text 198 136 Multilayer version of xeq_parse;
#X text 165 62 score following functionality;
#X obj 14 38 xeq_data aSeq dSym tSym;
#X text 186 37 send a sequence to a data canvas;
