#N canvas 248 250 450 442 10;
#X obj 251 345 xeq \$0-var;
#X msg 45 32 tracks;
#X msg 205 58 flush;
#X obj 51 145 print;
#X obj 51 106 xeq_parse \$0-var;
#X obj 24 57 bng 15 250 50 0 empty empty empty 17 7 0 10 -262144 -1
-1;
#X msg 56 56 tracks Track-1;
#X msg 200 86 tempo 10;
#X msg 140 25 rewind;
#X obj 146 149 print ch;
#X msg 206 29 transpo 2;
#X msg 59 8 status;
#X obj 303 75 xeq_query \$0-var;
#X obj 303 97 print q;
#X msg 294 26 tracks;
#X msg 354 6 transpo;
#X msg 351 29 tempo;
#X msg 99 248 edit;
#X msg 109 288 editok;
#X msg 247 147 locafter 41 21;
#X msg 246 120 find Track-2;
#X obj 251 421 print xeq1;
#X msg 216 267 mfwrite /tmp/kanon2.mid 1:4;
#X obj 284 401 print xeq2;
#X obj 318 381 print xeq3;
#X msg 288 290 mfread kanon2.mid;
#X msg 284 242 mfread /tmp/kanon.mid;
#X msg 274 218 mfread /tmp/kanon_rg2.mid;
#X connect 0 0 21 0;
#X connect 0 1 23 0;
#X connect 0 2 24 0;
#X connect 1 0 4 0;
#X connect 2 0 4 0;
#X connect 4 0 3 0;
#X connect 4 6 9 0;
#X connect 5 0 4 0;
#X connect 6 0 4 0;
#X connect 7 0 4 0;
#X connect 8 0 4 0;
#X connect 10 0 4 0;
#X connect 11 0 4 0;
#X connect 12 0 13 0;
#X connect 14 0 12 0;
#X connect 15 0 12 0;
#X connect 16 0 12 0;
#X connect 17 0 0 0;
#X connect 18 0 0 0;
#X connect 19 0 4 0;
#X connect 20 0 4 0;
#X connect 22 0 0 0;
#X connect 25 0 0 0;
#X connect 26 0 0 0;
#X connect 27 0 0 0;
