#N canvas 322 557 450 300 10;
#X declare -lib xeq/xeq;
#X obj 11 184 xeq_time \$0-var;
#X obj 294 271 declare -lib xeq/xeq;
#X msg 35 91 host \$1-var;
#X obj 35 73 \$0;
#X obj 35 57 bng 15 250 50 0 empty empty empty 17 7 0 10 -262144 -1
-1;
#X msg 49 116 index 1;
#X obj 11 94 bng 15 250 50 0 empty empty empty 17 7 0 10 -262144 -1
-1;
#X obj 11 257 print;
#X obj 55 257 print last;
#X obj 133 257 print next;
#X obj 210 257 print indx;
#X text 34 8 xeq_time;
#X msg 241 159 mfread mf/kanon.mid 1;
#X obj 241 191 xeq \$0-var;
#X connect 0 0 7 0;
#X connect 0 1 8 0;
#X connect 0 2 9 0;
#X connect 0 3 10 0;
#X connect 2 0 0 0;
#X connect 3 0 2 0;
#X connect 4 0 3 0;
#X connect 5 0 0 0;
#X connect 6 0 0 0;
#X connect 12 0 13 0;
