#N canvas 210 188 557 510 10;
#X declare -lib xeq/xeq;
#X obj 398 11 declare -lib xeq/xeq;
#X msg 112 111 layers 1 2;
#X floatatom 149 192 5 0 0 0 - - -, f 5;
#X msg 100 91 maxlayers 3;
#X msg 122 131 tracks aGimme;
#X msg 135 151 transpo 2;
#X msg 142 171 tempo 1.1;
#X msg 240 108 next 2;
#X msg 246 129 loop aGimme;
#X msg 254 149 rewind;
#X msg 263 170 stop;
#X msg 267 191 mute;
#X msg 274 212 unmute;
#X msg 285 233 flush;
#X msg 387 113 sync 2;
#X msg 388 134 locate aGimme;
#X msg 389 155 locafter aGimme;
#X msg 390 176 skipnotes aGimme;
#X msg 391 197 find aGimme;
#X msg 391 218 event aGimme;
#X obj 30 452 print;
#X obj 47 475 print poly;
#X obj 377 353 xeq \$0-y;
#X obj 68 376 xeq_polyparse \$0-x \$0-y 1;
#X text 259 378 <- segfault on tablesize > 1;
#X obj 376 310 xeq \$0-x;
#X msg 376 288 mfread mf/kanon.mid 1;
#X obj 41 132 \$0;
#X obj 41 116 bng 15 250 50 0 empty empty empty 17 7 0 10 -262144 -1
-1;
#X msg 41 150 host \$1-x;
#X obj 11 155 \$0;
#X obj 11 139 bng 15 250 50 0 empty empty empty 17 7 0 10 -262144 -1
-1;
#X msg 11 173 host \$1-y;
#X obj 77 452 print ctl;
#X obj 132 475 print pgm;
#X obj 150 453 print touch;
#X obj 225 476 print bend;
#X obj 238 454 print chan;
#X obj 311 477 print layer;
#X obj 322 455 print fin;
#X msg 377 330 mfread mf/kanon.mid 1:2;
#X text 26 35 Multilayer version of xeq_parse;
#X text 25 15 xeq_polyparse;
#X obj 235 89 bng 15 250 50 0 empty empty empty 17 7 0 10 -262144 -1
-1;
#X msg 274 411 end;
#X connect 1 0 23 0;
#X connect 2 0 23 0;
#X connect 3 0 23 0;
#X connect 4 0 23 0;
#X connect 5 0 23 0;
#X connect 6 0 23 0;
#X connect 7 0 23 0;
#X connect 8 0 23 0;
#X connect 9 0 23 0;
#X connect 10 0 23 0;
#X connect 11 0 23 0;
#X connect 12 0 23 0;
#X connect 13 0 23 0;
#X connect 14 0 23 0;
#X connect 15 0 23 0;
#X connect 16 0 23 0;
#X connect 17 0 23 0;
#X connect 18 0 23 0;
#X connect 19 0 23 0;
#X connect 23 0 20 0;
#X connect 23 1 21 0;
#X connect 23 2 33 0;
#X connect 23 3 34 0;
#X connect 23 4 35 0;
#X connect 23 5 36 0;
#X connect 23 6 37 0;
#X connect 23 7 38 0;
#X connect 23 8 44 0;
#X connect 26 0 25 0;
#X connect 27 0 29 0;
#X connect 28 0 27 0;
#X connect 29 0 23 0;
#X connect 30 0 32 0;
#X connect 31 0 30 0;
#X connect 32 0 23 0;
#X connect 40 0 22 0;
#X connect 43 0 23 0;
#X connect 44 0 39 0;
