#N canvas 366 263 760 516 12;
#X obj 160 28 adc~;
#X obj 38 470 dac~;
#X floatatom 344 402 5 0 0;
#X obj 463 333 loadbang;
#X floatatom 463 402 5 0 0;
#X floatatom 577 402 5 0 0;
#X floatatom 38 251 5 0 0;
#X obj 38 301 delread~ d;
#X obj 160 65 delwrite~ d 10000;
#X obj 344 251 fiddle~;
#X floatatom 387 218 5 0 0;
#X obj 344 369 -;
#X obj 344 289 t b 0;
#X floatatom 344 327 5 0 0;
#X obj 39 141 xeq x;
#X msg 489 28 bang;
#X obj 489 131 stripnote;
#X floatatom 598 131 5 0 0;
#X msg 463 369 500;
#X msg 577 369 0;
#X obj 389 131 noteout;
#X msg 370 61 tempo \$1;
#X floatatom 370 28 5 0 0;
#X msg 326 28 1;
#X msg 590 28 rewind \, flush;
#X obj 39 65 openpanel;
#X msg 39 28 bang;
#X msg 39 100 mfread \$1;
#X obj 38 422 a/pitchshift~ pshelhan~;
#X obj 489 80 xeq_parse x;
#X msg 160 100 mfread mf/kanon.mid 1;
#X obj 408 289 r pitch;
#X obj 489 218 s pitch;
#X obj 106 209 r level;
#X obj 106 251 route float bang rewind;
#X obj 624 80 s level;
#X msg 240 301 0;
#X obj 108 339 hsl 128 30 0.01 1 1 0 empty empty empty 20 8 0 8 -166441
-24198 -1 0 0;
#X obj 38 385 a/fader~;
#X msg 173 301 1;
#X msg 38 209 200;
#X obj 489 178 + -7;
#X connect 0 0 8 0;
#X connect 2 0 28 1;
#X connect 3 0 18 0;
#X connect 3 0 19 0;
#X connect 4 0 28 2;
#X connect 5 0 28 3;
#X connect 6 0 7 0;
#X connect 7 0 9 0;
#X connect 7 0 38 0;
#X connect 9 0 10 0;
#X connect 9 0 12 0;
#X connect 11 0 2 0;
#X connect 12 0 13 0;
#X connect 12 1 11 1;
#X connect 13 0 11 0;
#X connect 15 0 29 0;
#X connect 15 0 35 0;
#X connect 16 0 41 0;
#X connect 17 0 41 1;
#X connect 18 0 4 0;
#X connect 19 0 5 0;
#X connect 21 0 29 0;
#X connect 22 0 21 0;
#X connect 23 0 22 0;
#X connect 24 0 29 0;
#X connect 24 0 35 0;
#X connect 25 0 27 0;
#X connect 26 0 25 0;
#X connect 27 0 14 0;
#X connect 28 0 1 0;
#X connect 28 0 1 1;
#X connect 29 0 16 0;
#X connect 29 0 20 0;
#X connect 29 6 20 2;
#X connect 30 0 14 0;
#X connect 31 0 13 0;
#X connect 33 0 34 0;
#X connect 34 0 37 0;
#X connect 34 1 39 0;
#X connect 34 2 36 0;
#X connect 36 0 37 0;
#X connect 37 0 38 1;
#X connect 38 0 28 0;
#X connect 39 0 37 0;
#X connect 40 0 6 0;
#X connect 41 0 32 0;
