#N canvas 298 248 687 558 12;
#X obj 26 87 xeq x;
#X msg 42 47 edit;
#X obj 99 497 noteout;
#X msg 35 371 bang;
#X msg 99 371 rewind \, flush;
#X obj 99 421 xeq_parse x y;
#X obj 429 17 notein;
#X floatatom 505 312 5 0 0;
#X msg 313 316 tempo \$1;
#X msg 313 280 1;
#X msg 100 47 editok;
#X floatatom 222 117 5 0 0;
#X msg 99 328 loop \$1 \$2;
#X obj 99 296 pack;
#X floatatom 316 117 5 0 0;
#X msg 26 17 mfread mf/kanon.mid -track;
#X obj 505 280 a/tapping;
#X obj 420 396 xeq_time y;
#X obj 130 260 +;
#X obj 429 54 stripnote;
#X obj 182 152 * 100;
#X obj 70 213 t b 0 0;
#X floatatom 420 432 0 0 0;
#X obj 337 74 - 24;
#X floatatom 350 17 5 0 0;
#X obj 285 152 * 20;
#X msg 248 371 loop break;
#X obj 547 54 fiddle~;
#X obj 547 17 adc~;
#X floatatom 547 91 5 0 0;
#X floatatom 391 233 5 0 0;
#X obj 391 192 - 60;
#X obj 391 158 * 2;
#X msg 99 459 \$1;
#X connect 1 0 0 0;
#X connect 3 0 5 0;
#X connect 4 0 5 0;
#X connect 5 0 33 0;
#X connect 6 0 19 0;
#X connect 6 1 19 1;
#X connect 8 0 5 0;
#X connect 9 0 8 0;
#X connect 10 0 0 0;
#X connect 11 0 20 1;
#X connect 12 0 5 0;
#X connect 13 0 12 0;
#X connect 14 0 25 1;
#X connect 15 0 0 0;
#X connect 16 0 7 0;
#X connect 16 0 8 0;
#X connect 17 0 22 0;
#X connect 18 0 13 1;
#X connect 19 0 23 0;
#X connect 19 1 16 0;
#X connect 19 1 25 0;
#X connect 20 0 21 0;
#X connect 21 0 17 0;
#X connect 21 1 13 0;
#X connect 21 2 18 0;
#X connect 23 0 20 0;
#X connect 24 0 23 1;
#X connect 25 0 18 1;
#X connect 26 0 5 0;
#X connect 27 0 23 0;
#X connect 27 0 29 0;
#X connect 27 1 16 0;
#X connect 27 3 32 0;
#X connect 28 0 27 0;
#X connect 31 0 30 0;
#X connect 31 0 2 1;
#X connect 32 0 31 0;
#X connect 33 0 2 0;
