#N canvas 87 0 693 511 12;
#X obj 309 142 line~;
#X obj 309 100 pack 0 200;
#X obj 251 287 wrap~;
#X obj 251 191 phasor~ 0;
#X obj 474 60 * 0.01;
#X obj 26 16 inlet~;
#X obj 251 18 inlet;
#X obj 251 470 outlet~;
#X obj 367 18 inlet;
#X obj 474 19 inlet;
#N canvas 56 15 377 388 itos 0;
#X obj 74 101 exp;
#X obj 74 269 /;
#X obj 219 182 * 0.001;
#X obj 219 221 t b f;
#X obj 74 28 inlet;
#X obj 74 65 * 0.0577623;
#X obj 74 140 t b 0;
#X obj 74 224 -;
#X msg 74 181 1;
#X obj 219 28 inlet;
#X obj 74 311 outlet;
#X obj 219 64 moses 1;
#X msg 219 102 1;
#X obj 259 311 outlet;
#X obj 219 142 t 0 0;
#X connect 0 0 6 0;
#X connect 1 0 10 0;
#X connect 2 0 3 0;
#X connect 3 0 1 0;
#X connect 3 1 1 1;
#X connect 4 0 5 0;
#X connect 5 0 0 0;
#X connect 6 0 8 0;
#X connect 6 1 7 1;
#X connect 7 0 1 0;
#X connect 8 0 7 0;
#X connect 9 0 11 0;
#X connect 11 0 12 0;
#X connect 11 1 14 0;
#X connect 12 0 14 0;
#X connect 14 0 2 0;
#X connect 14 1 13 0;
#X restore 251 60 pd itos;
#X obj 49 102 *~ 0.25;
#X obj 399 286 wrap~;
#X obj 399 246 +~ 0.5;
#X obj 546 284 wrap~;
#X obj 251 247 +~ 0.25;
#X obj 546 247 +~ 0.75;
#X obj 49 60 catch~ \$0-bus;
#X obj 126 102 r \$0-fbk;
#X obj 474 99 s \$0-fbk;
#X obj 546 328 \$1 \$0-del;
#X obj 399 329 \$1 \$0-del;
#X obj 251 330 \$1 \$0-del;
#X obj 103 331 \$1 \$0-del;
#X obj 399 469 throw~ \$0-bus;
#X obj 26 144 delwrite~ \$0-del 2000;
#X connect 0 0 20 1;
#X connect 0 0 21 1;
#X connect 0 0 22 1;
#X connect 0 0 23 1;
#X connect 1 0 0 0;
#X connect 2 0 22 0;
#X connect 3 0 15 0;
#X connect 3 0 13 0;
#X connect 3 0 16 0;
#X connect 3 0 23 0;
#X connect 4 0 19 0;
#X connect 5 0 25 0;
#X connect 6 0 10 0;
#X connect 8 0 10 1;
#X connect 9 0 4 0;
#X connect 10 0 3 0;
#X connect 10 1 1 0;
#X connect 11 0 25 0;
#X connect 12 0 21 0;
#X connect 13 0 12 0;
#X connect 14 0 20 0;
#X connect 15 0 2 0;
#X connect 16 0 14 0;
#X connect 17 0 11 0;
#X connect 18 0 11 1;
#X connect 20 0 7 0;
#X connect 20 0 24 0;
#X connect 21 0 7 0;
#X connect 21 0 24 0;
#X connect 22 0 7 0;
#X connect 22 0 24 0;
#X connect 23 0 7 0;
#X connect 23 0 24 0;
