#N canvas 71 134 330 339 12;
#X obj 63 48 inlet~;
#X obj 148 48 inlet;
#X obj 63 257 outlet~;
#X obj 63 222 *~;
#X msg 85 116 0;
#X obj 148 81 moses 0.011;
#X obj 85 184 line~;
#X msg 85 149 \$1 30;
#X connect 0 0 3 0;
#X connect 1 0 5 0;
#X connect 3 0 2 0;
#X connect 4 0 7 0;
#X connect 5 0 4 0;
#X connect 5 1 7 0;
#X connect 6 0 3 1;
#X connect 7 0 6 0;
