#N canvas 227 126 361 390 12;
#X obj 121 130 timer;
#X obj 121 99 t b b;
#X obj 121 190 moses 1000;
#X obj 121 285 /;
#X obj 121 223 t b 0;
#X msg 121 254 500;
#X obj 121 161 moses 100;
#X obj 121 60 inlet;
#X obj 121 324 outlet;
#X connect 0 0 6 0;
#X connect 1 0 0 0;
#X connect 1 1 0 1;
#X connect 2 0 4 0;
#X connect 3 0 8 0;
#X connect 4 0 5 0;
#X connect 4 1 3 1;
#X connect 5 0 3 0;
#X connect 6 1 2 0;
#X connect 7 0 1 0;
