#N canvas 176 20 673 504 12;
#X obj 281 316 loadbang;
#X floatatom 281 380 5 0 0;
#X floatatom 373 380 5 0 0;
#X floatatom 51 155 5 0 0;
#X obj 431 146 fiddle~;
#X obj 431 264 -;
#X floatatom 431 222 5 0 0;
#X msg 281 344 500;
#X msg 373 349 0;
#X msg 51 112 2000;
#X obj 183 155 hsl 128 30 0.01 1 1 0 empty empty empty 20 8 0 8 -166441
-24198 -1 0 0;
#X obj 51 344 fader~;
#X obj 51 432 outlet~;
#X obj 51 13 inlet~;
#X obj 180 13 inlet;
#X obj 324 13 inlet;
#X obj 51 195 delread~ \$0-d;
#X obj 51 49 delwrite~ \$0-d 10000;
#X obj 450 430 outlet;
#X obj 324 121 > 0;
#X msg 382 80 \$1;
#X msg 324 77 \$2;
#X obj 450 394 int;
#N canvas 64 8 551 533 singing 0;
#X obj 52 132 pitchshift~ pshelhan~;
#X obj 52 36 inlet~;
#X obj 113 36 inlet;
#X obj 167 36 inlet;
#X obj 219 36 inlet;
#X obj 52 491 outlet~;
#X obj 272 36 inlet;
#X obj 333 36 inlet;
#X obj 395 36 inlet;
#X obj 106 195 pitchshift~ pshelhan~;
#X obj 158 254 pitchshift~ pshelhan~;
#X obj 211 319 pitchshift~ pshelhan~;
#X obj 73 84 t b 0;
#X obj 127 84 t b 0;
#X obj 179 84 t b 0;
#X obj 232 84 t b 0;
#X obj 468 36 inlet;
#X obj 46 197 line~;
#X msg 73 163 1 30;
#X msg 127 163 1 30;
#X msg 179 163 1 30;
#X msg 230 163 1 30;
#X msg 468 84 0 30;
#X obj 128 228 line~;
#X obj 179 288 line~;
#X obj 230 354 line~;
#X obj 52 230 *~;
#X obj 106 258 *~;
#X obj 158 320 *~;
#X obj 211 392 *~;
#X connect 0 0 26 0;
#X connect 1 0 0 0;
#X connect 1 0 9 0;
#X connect 1 0 10 0;
#X connect 1 0 11 0;
#X connect 2 0 12 0;
#X connect 3 0 13 0;
#X connect 4 0 14 0;
#X connect 6 0 15 0;
#X connect 7 0 0 2;
#X connect 7 0 9 2;
#X connect 7 0 10 2;
#X connect 7 0 11 2;
#X connect 8 0 0 3;
#X connect 8 0 9 3;
#X connect 8 0 10 3;
#X connect 8 0 11 3;
#X connect 9 0 27 0;
#X connect 10 0 28 0;
#X connect 11 0 29 0;
#X connect 12 0 18 0;
#X connect 12 1 0 1;
#X connect 13 0 19 0;
#X connect 13 1 9 1;
#X connect 14 0 20 0;
#X connect 14 1 10 1;
#X connect 15 0 21 0;
#X connect 15 1 11 1;
#X connect 16 0 22 0;
#X connect 17 0 26 1;
#X connect 18 0 17 0;
#X connect 19 0 23 0;
#X connect 20 0 24 0;
#X connect 21 0 25 0;
#X connect 22 0 25 0;
#X connect 22 0 24 0;
#X connect 22 0 23 0;
#X connect 22 0 17 0;
#X connect 23 0 27 1;
#X connect 24 0 28 1;
#X connect 25 0 29 1;
#X connect 26 0 5 0;
#X connect 27 0 5 0;
#X connect 28 0 5 0;
#X connect 29 0 5 0;
#X restore 137 400 pd singing;
#X obj 149 316 pack;
#X obj 149 344 route 1 2 3 4;
#X obj 324 49 t l l l;
#X msg 235 85 \$3;
#X obj 235 121 spigot;
#X obj 473 13 inlet;
#X obj 507 222 + 0.5;
#X obj 472 280 int;
#X obj 507 280 int;
#X obj 472 340 max;
#X obj 394 316 del 200;
#X obj 525 431 outlet;
#X obj 431 184 t b 0 0 0 0;
#X connect 0 0 7 0;
#X connect 0 0 8 0;
#X connect 1 0 23 5;
#X connect 2 0 23 6;
#X connect 3 0 16 0;
#X connect 4 0 36 0;
#X connect 4 1 34 0;
#X connect 5 0 24 1;
#X connect 6 0 5 0;
#X connect 7 0 1 0;
#X connect 8 0 2 0;
#X connect 9 0 3 0;
#X connect 10 0 11 1;
#X connect 11 0 4 0;
#X connect 11 0 23 0;
#X connect 13 0 17 0;
#X connect 14 0 10 0;
#X connect 15 0 26 0;
#X connect 16 0 11 0;
#X connect 20 0 6 0;
#X connect 21 0 19 0;
#X connect 21 0 28 1;
#X connect 22 0 18 0;
#X connect 23 0 12 0;
#X connect 24 0 25 0;
#X connect 25 0 23 1;
#X connect 25 1 23 2;
#X connect 25 2 23 3;
#X connect 25 3 23 4;
#X connect 26 0 27 0;
#X connect 26 1 21 0;
#X connect 26 2 20 0;
#X connect 27 0 28 0;
#X connect 28 0 24 0;
#X connect 29 0 23 7;
#X connect 30 0 32 0;
#X connect 31 0 33 0;
#X connect 32 0 33 1;
#X connect 33 0 22 1;
#X connect 34 0 22 0;
#X connect 36 0 6 0;
#X connect 36 1 5 1;
#X connect 36 2 31 0;
#X connect 36 3 30 0;
#X connect 36 4 35 0;
