#N canvas 0 0 432 375 12;
#X obj 38 154 metro 100;
#X msg 150 268 layers \$1 \$1 \, unmute;
#X msg 38 231 layers \$1 \$1 \, mute;
#X obj 38 34 inlet;
#X obj 38 302 outlet;
#X obj 114 34 inlet;
#X obj 226 34 inlet;
#X obj 150 154 metro 100;
#X obj 38 71 route bang stop all;
#X msg 148 113 layers \, unmute;
#X msg 93 113 stop;
#X obj 38 190 random \$1;
#X obj 150 190 random \$1;
#X connect 0 0 11 0;
#X connect 1 0 4 0;
#X connect 2 0 4 0;
#X connect 3 0 8 0;
#X connect 5 0 0 1;
#X connect 6 0 7 1;
#X connect 7 0 12 0;
#X connect 8 0 0 0;
#X connect 8 0 7 0;
#X connect 8 1 10 0;
#X connect 8 2 9 0;
#X connect 9 0 4 0;
#X connect 10 0 0 0;
#X connect 10 0 7 0;
#X connect 11 0 2 0;
#X connect 12 0 1 0;
