#N canvas 319 54 306 379 12;
#X obj 50 261 hip~ 5;
#X obj 136 142 *~;
#X obj 50 107 cos~;
#X obj 50 221 *~;
#X obj 50 57 inlet~;
#X obj 158 57 inlet~;
#X obj 50 324 outlet~;
#X obj 136 180 vd~ \$1;
#X obj 50 142 *~ -0.5;
#X obj 50 181 +~ 0.5;
#X connect 0 0 6 0;
#X connect 1 0 7 0;
#X connect 2 0 8 0;
#X connect 3 0 0 0;
#X connect 4 0 1 0;
#X connect 4 0 2 0;
#X connect 5 0 1 1;
#X connect 7 0 3 1;
#X connect 8 0 9 0;
#X connect 9 0 3 0;
