#N canvas 0 0 535 462 12;
#X obj 39 89 t b b b;
#X obj 39 25 inlet;
#X obj 39 57 metro 1000;
#X obj 141 25 inlet;
#X msg 97 365 layers \$1;
#X msg 203 365 rubato \$1 \$2 \$1;
#X obj 97 333 + 1;
#X obj 239 25 inlet;
#X obj 353 25 inlet;
#X obj 39 129 random 1000;
#X obj 39 161 + 50;
#X obj 203 333 pack;
#X obj 411 89 t 0 0;
#X obj 451 121 / 2;
#X obj 277 205 / 10;
#X obj 243 301 *;
#X obj 203 272 t 0 0;
#X obj 353 57 moses 1;
#X obj 97 301 random \$1;
#X obj 277 173 - 1.5;
#X obj 277 141 random 4;
#X obj 411 121 + 1;
#X obj 203 407 xeq_polytempo \$2;
#X obj 277 272 pow;
#X msg 277 237 2 \$1;
#X connect 0 0 9 0;
#X connect 0 1 20 0;
#X connect 0 2 18 0;
#X connect 1 0 2 0;
#X connect 2 0 0 0;
#X connect 3 0 2 1;
#X connect 4 0 22 0;
#X connect 5 0 22 0;
#X connect 6 0 4 0;
#X connect 7 0 9 1;
#X connect 8 0 17 0;
#X connect 9 0 10 0;
#X connect 10 0 16 0;
#X connect 11 0 5 0;
#X connect 12 0 21 0;
#X connect 12 1 13 0;
#X connect 13 0 19 1;
#X connect 14 0 24 0;
#X connect 15 0 11 1;
#X connect 16 0 11 0;
#X connect 16 1 15 0;
#X connect 17 1 12 0;
#X connect 18 0 6 0;
#X connect 19 0 14 0;
#X connect 20 0 19 0;
#X connect 21 0 20 1;
#X connect 23 0 15 1;
#X connect 24 0 23 0;
