#N canvas 358 224 506 282 12;
#X obj 92 45 notein;
#X obj 92 194 xeq_record x;
#X obj 92 91 pack 0 0 0;
#X msg 275 133 record;
#X msg 362 45 bang;
#X msg 225 45 rewind \, flush;
#X msg 33 194 edit;
#X obj 362 133 noteout;
#X msg 277 173 restop;
#X obj 362 91 xeq_parse x;
#X msg 92 133 readd 144 \$1 \$2 \$3;
#X connect 0 0 2 0;
#X connect 0 0 7 0;
#X connect 0 1 2 1;
#X connect 0 1 7 1;
#X connect 0 2 2 2;
#X connect 2 0 10 0;
#X connect 3 0 1 0;
#X connect 4 0 9 0;
#X connect 5 0 9 0;
#X connect 6 0 1 0;
#X connect 8 0 1 0;
#X connect 8 0 5 0;
#X connect 9 0 7 0;
#X connect 10 0 1 0;
