#N canvas 249 158 557 510 12;
#X obj 19 457 noteout;
#X msg 338 158 bang;
#X msg 356 201 stop;
#X obj 19 88 xeq x;
#X msg 41 335 layers \, rewind \, flush;
#X msg 19 158 bang;
#X obj 30 417 notein;
#X msg 41 297 layers \, unmute \, bang;
#X obj 224 417 t b b;
#X floatatom 153 158 5 0 0;
#X floatatom 152 201 5 0 0;
#X floatatom 238 158 5 0 0;
#X floatatom 240 201 5 0 0;
#X floatatom 441 158 5 1 100;
#X msg 31 201 stop \, all;
#X msg 19 18 mfread mf/kanon.mid;
#X msg 224 457 layers \, bang;
#X msg 296 335 layers \, tempo \$1;
#X floatatom 296 297 5 0 0;
#X obj 78 158 unpack;
#X obj 238 123 unpack 0 0 0;
#X msg 238 88 1000 1500 4;
#X obj 19 376 xeq_polyparse 4 x y;
#X obj 19 244 a/hocquet 4;
#X msg 78 123 20 40;
#X msg 44 52 mfread mf/kanon.mid 1;
#X msg 251 259 1;
#X msg 251 297 1.5;
#X msg 145 123 50 70;
#X msg 251 335 0.8;
#X obj 338 244 a/rubato 3 y;
#X connect 1 0 30 0;
#X connect 2 0 30 0;
#X connect 4 0 22 0;
#X connect 5 0 23 0;
#X connect 6 0 0 0;
#X connect 6 1 0 1;
#X connect 6 2 0 2;
#X connect 7 0 22 0;
#X connect 8 0 16 0;
#X connect 8 1 4 0;
#X connect 9 0 23 1;
#X connect 10 0 23 2;
#X connect 11 0 30 1;
#X connect 12 0 30 2;
#X connect 13 0 30 3;
#X connect 14 0 23 0;
#X connect 15 0 3 0;
#X connect 16 0 22 0;
#X connect 17 0 22 0;
#X connect 18 0 17 0;
#X connect 19 0 9 0;
#X connect 19 1 10 0;
#X connect 20 0 11 0;
#X connect 20 1 12 0;
#X connect 20 2 13 0;
#X connect 21 0 20 0;
#X connect 22 0 0 0;
#X connect 22 7 0 2;
#X connect 22 8 8 0;
#X connect 23 0 22 0;
#X connect 24 0 19 0;
#X connect 25 0 3 0;
#X connect 26 0 18 0;
#X connect 27 0 18 0;
#X connect 28 0 19 0;
#X connect 29 0 18 0;
